<svg xmlns="http://www.w3.org/2000/svg" viewBox="0 0 1000 1000"><defs><style>.cls-1{fill:#faa41c;}.cls-2{fill:#2192d0;}.cls-3{fill:#0d75a4;}.cls-4{fill:#5fcae6;}</style></defs><g id="_1000" data-name="1000"><g id="Layer_3_copy_6" data-name="Layer 3 copy 6"><polyline class="cls-1" points="640.5 464.64 635.22 652.93 524.37 565.52 524.37 368.92"/><path class="cls-2" d="M896,763,522.3,947.15V573.48l110.92,85.8.38,136.08L808.34,710.1,888,610.89l1.94-158s5.78-89.3-95.56-56.58l-149.93,63.2-112.85-94L802.65,263.23S982,201.14,990.25,371l-9.18,277Z"/></g><g id="Layer_3_copy_6-2" data-name="Layer 3 copy 6"><path class="cls-3" d="M497.25,816.22l1-292.4c0-172.25-155.32-218.15-155.32-218.15L17.19,171.54l97,162.5,184.36,83.17c92.88,32.27,96.65,115,96.65,115l-2.11,209.57-62.25,29.76L124,648.87,120.15,520,22.09,343.92,34.81,697,360.75,889.83"/><polygon class="cls-1" points="12.61 173.24 108.81 336.96 119.16 506.59 22.45 333.23 12.61 173.24"/></g><g id="Layer_5_copy_4" data-name="Layer 5 copy 4"><path class="cls-4" d="M890.21,206.7,515,344.78,171.47,212.18,351,209.76,516.13,265l235.79-74.08-7.23-34L561.56,106.76s-85.37-26.12-166.82,2.8L230,153.25l-197.59-.51L323.16,74.37S492.76,19.06,637,68.6l238.57,68.12Z"/><polygon class="cls-1" points="33.54 156.91 238.01 158.16 349.44 204.62 164.53 208.56 33.54 156.91"/></g></g></svg>